%TF.GenerationSoftware,KiCad,Pcbnew,(6.0.0)*%
%TF.CreationDate,2022-11-15T20:59:03+00:00*%
%TF.ProjectId,Grove-Spectra,47726f76-652d-4537-9065-637472612e6b,A*%
%TF.SameCoordinates,Original*%
%TF.FileFunction,Legend,Top*%
%TF.FilePolarity,Positive*%
%FSLAX46Y46*%
G04 Gerber Fmt 4.6, Leading zero omitted, Abs format (unit mm)*
G04 Created by KiCad (PCBNEW (6.0.0)) date 2022-11-15 20:59:03*
%MOMM*%
%LPD*%
G01*
G04 APERTURE LIST*
%ADD10C,0.150000*%
%ADD11C,0.120000*%
%ADD12C,0.100000*%
%ADD13C,0.200000*%
G04 APERTURE END LIST*
D10*
X155485714Y-92852380D02*
X155485714Y-93661904D01*
X155533333Y-93757142D01*
X155580952Y-93804761D01*
X155676190Y-93852380D01*
X155866666Y-93852380D01*
X155961904Y-93804761D01*
X156009523Y-93757142D01*
X156057142Y-93661904D01*
X156057142Y-92852380D01*
X156390476Y-92852380D02*
X156723809Y-93852380D01*
X157057142Y-92852380D01*
X132609523Y-86004761D02*
X132752380Y-86052380D01*
X132990476Y-86052380D01*
X133085714Y-86004761D01*
X133133333Y-85957142D01*
X133180952Y-85861904D01*
X133180952Y-85766666D01*
X133133333Y-85671428D01*
X133085714Y-85623809D01*
X132990476Y-85576190D01*
X132800000Y-85528571D01*
X132704761Y-85480952D01*
X132657142Y-85433333D01*
X132609523Y-85338095D01*
X132609523Y-85242857D01*
X132657142Y-85147619D01*
X132704761Y-85100000D01*
X132800000Y-85052380D01*
X133038095Y-85052380D01*
X133180952Y-85100000D01*
X134180952Y-85957142D02*
X134133333Y-86004761D01*
X133990476Y-86052380D01*
X133895238Y-86052380D01*
X133752380Y-86004761D01*
X133657142Y-85909523D01*
X133609523Y-85814285D01*
X133561904Y-85623809D01*
X133561904Y-85480952D01*
X133609523Y-85290476D01*
X133657142Y-85195238D01*
X133752380Y-85100000D01*
X133895238Y-85052380D01*
X133990476Y-85052380D01*
X134133333Y-85100000D01*
X134180952Y-85147619D01*
X135085714Y-86052380D02*
X134609523Y-86052380D01*
X134609523Y-85052380D01*
X155176190Y-90952380D02*
X155414285Y-91952380D01*
X155604761Y-91238095D01*
X155795238Y-91952380D01*
X156033333Y-90952380D01*
X156414285Y-91952380D02*
X156414285Y-90952380D01*
X156414285Y-91428571D02*
X156985714Y-91428571D01*
X156985714Y-91952380D02*
X156985714Y-90952380D01*
X157461904Y-91952380D02*
X157461904Y-90952380D01*
X157795238Y-90952380D02*
X158366666Y-90952380D01*
X158080952Y-91952380D02*
X158080952Y-90952380D01*
X158700000Y-91428571D02*
X159033333Y-91428571D01*
X159176190Y-91952380D02*
X158700000Y-91952380D01*
X158700000Y-90952380D01*
X159176190Y-90952380D01*
X143061904Y-95652380D02*
X143680952Y-95652380D01*
X143347619Y-96033333D01*
X143490476Y-96033333D01*
X143585714Y-96080952D01*
X143633333Y-96128571D01*
X143680952Y-96223809D01*
X143680952Y-96461904D01*
X143633333Y-96557142D01*
X143585714Y-96604761D01*
X143490476Y-96652380D01*
X143204761Y-96652380D01*
X143109523Y-96604761D01*
X143061904Y-96557142D01*
X143966666Y-95652380D02*
X144300000Y-96652380D01*
X144633333Y-95652380D01*
X144871428Y-95652380D02*
X145490476Y-95652380D01*
X145157142Y-96033333D01*
X145300000Y-96033333D01*
X145395238Y-96080952D01*
X145442857Y-96128571D01*
X145490476Y-96223809D01*
X145490476Y-96461904D01*
X145442857Y-96557142D01*
X145395238Y-96604761D01*
X145300000Y-96652380D01*
X145014285Y-96652380D01*
X144919047Y-96604761D01*
X144871428Y-96557142D01*
X144700000Y-91452380D02*
X144700000Y-90452380D01*
X145747619Y-91452380D02*
X145414285Y-90976190D01*
X145176190Y-91452380D02*
X145176190Y-90452380D01*
X145557142Y-90452380D01*
X145652380Y-90500000D01*
X145700000Y-90547619D01*
X145747619Y-90642857D01*
X145747619Y-90785714D01*
X145700000Y-90880952D01*
X145652380Y-90928571D01*
X145557142Y-90976190D01*
X145176190Y-90976190D01*
X133138095Y-91100000D02*
X133042857Y-91052380D01*
X132900000Y-91052380D01*
X132757142Y-91100000D01*
X132661904Y-91195238D01*
X132614285Y-91290476D01*
X132566666Y-91480952D01*
X132566666Y-91623809D01*
X132614285Y-91814285D01*
X132661904Y-91909523D01*
X132757142Y-92004761D01*
X132900000Y-92052380D01*
X132995238Y-92052380D01*
X133138095Y-92004761D01*
X133185714Y-91957142D01*
X133185714Y-91623809D01*
X132995238Y-91623809D01*
X133614285Y-92052380D02*
X133614285Y-91052380D01*
X134185714Y-92052380D01*
X134185714Y-91052380D01*
X134661904Y-92052380D02*
X134661904Y-91052380D01*
X134900000Y-91052380D01*
X135042857Y-91100000D01*
X135138095Y-91195238D01*
X135185714Y-91290476D01*
X135233333Y-91480952D01*
X135233333Y-91623809D01*
X135185714Y-91814285D01*
X135138095Y-91909523D01*
X135042857Y-92004761D01*
X134900000Y-92052380D01*
X134661904Y-92052380D01*
X132685714Y-88004761D02*
X132828571Y-88052380D01*
X133066666Y-88052380D01*
X133161904Y-88004761D01*
X133209523Y-87957142D01*
X133257142Y-87861904D01*
X133257142Y-87766666D01*
X133209523Y-87671428D01*
X133161904Y-87623809D01*
X133066666Y-87576190D01*
X132876190Y-87528571D01*
X132780952Y-87480952D01*
X132733333Y-87433333D01*
X132685714Y-87338095D01*
X132685714Y-87242857D01*
X132733333Y-87147619D01*
X132780952Y-87100000D01*
X132876190Y-87052380D01*
X133114285Y-87052380D01*
X133257142Y-87100000D01*
X133685714Y-88052380D02*
X133685714Y-87052380D01*
X133923809Y-87052380D01*
X134066666Y-87100000D01*
X134161904Y-87195238D01*
X134209523Y-87290476D01*
X134257142Y-87480952D01*
X134257142Y-87623809D01*
X134209523Y-87814285D01*
X134161904Y-87909523D01*
X134066666Y-88004761D01*
X133923809Y-88052380D01*
X133685714Y-88052380D01*
X134638095Y-87766666D02*
X135114285Y-87766666D01*
X134542857Y-88052380D02*
X134876190Y-87052380D01*
X135209523Y-88052380D01*
X132661904Y-89052380D02*
X133280952Y-89052380D01*
X132947619Y-89433333D01*
X133090476Y-89433333D01*
X133185714Y-89480952D01*
X133233333Y-89528571D01*
X133280952Y-89623809D01*
X133280952Y-89861904D01*
X133233333Y-89957142D01*
X133185714Y-90004761D01*
X133090476Y-90052380D01*
X132804761Y-90052380D01*
X132709523Y-90004761D01*
X132661904Y-89957142D01*
X133566666Y-89052380D02*
X133900000Y-90052380D01*
X134233333Y-89052380D01*
X134471428Y-89052380D02*
X135090476Y-89052380D01*
X134757142Y-89433333D01*
X134900000Y-89433333D01*
X134995238Y-89480952D01*
X135042857Y-89528571D01*
X135090476Y-89623809D01*
X135090476Y-89861904D01*
X135042857Y-89957142D01*
X134995238Y-90004761D01*
X134900000Y-90052380D01*
X134614285Y-90052380D01*
X134519047Y-90004761D01*
X134471428Y-89957142D01*
X146509523Y-96652380D02*
X146033333Y-96652380D01*
X146033333Y-95652380D01*
X146842857Y-96652380D02*
X146842857Y-95652380D01*
X147080952Y-95652380D01*
X147223809Y-95700000D01*
X147319047Y-95795238D01*
X147366666Y-95890476D01*
X147414285Y-96080952D01*
X147414285Y-96223809D01*
X147366666Y-96414285D01*
X147319047Y-96509523D01*
X147223809Y-96604761D01*
X147080952Y-96652380D01*
X146842857Y-96652380D01*
X148414285Y-96652380D02*
X148080952Y-96176190D01*
X147842857Y-96652380D02*
X147842857Y-95652380D01*
X148223809Y-95652380D01*
X148319047Y-95700000D01*
X148366666Y-95747619D01*
X148414285Y-95842857D01*
X148414285Y-95985714D01*
X148366666Y-96080952D01*
X148319047Y-96128571D01*
X148223809Y-96176190D01*
X147842857Y-96176190D01*
D11*
%TO.C,R6*%
X138280000Y-94346359D02*
X138280000Y-94653641D01*
X137520000Y-94346359D02*
X137520000Y-94653641D01*
%TO.C,R5*%
X139653641Y-95280000D02*
X139346359Y-95280000D01*
X139653641Y-94520000D02*
X139346359Y-94520000D01*
%TO.C,Q3*%
X135300000Y-93740000D02*
X134650000Y-93740000D01*
X135300000Y-93740000D02*
X135950000Y-93740000D01*
X135300000Y-96860000D02*
X134650000Y-96860000D01*
X135300000Y-96860000D02*
X136975000Y-96860000D01*
%TO.C,D4*%
X138100000Y-97035000D02*
X140385000Y-97035000D01*
X140385000Y-97035000D02*
X140385000Y-95565000D01*
X140385000Y-95565000D02*
X138100000Y-95565000D01*
%TO.C,R1*%
X139036359Y-84780000D02*
X139343641Y-84780000D01*
X139036359Y-84020000D02*
X139343641Y-84020000D01*
D12*
%TO.C,IC2*%
X152200000Y-86600000D02*
X152200000Y-86600000D01*
X152200000Y-86500000D02*
X152200000Y-86500000D01*
X152200000Y-86500000D02*
G75*
G03*
X152200000Y-86600000I0J-50000D01*
G01*
X152200000Y-86600000D02*
G75*
G03*
X152200000Y-86500000I0J50000D01*
G01*
D11*
%TO.C,C2*%
X144540000Y-82107836D02*
X144540000Y-81892164D01*
X145260000Y-82107836D02*
X145260000Y-81892164D01*
%TO.C,R2*%
X136580000Y-87353641D02*
X136580000Y-87046359D01*
X135820000Y-87353641D02*
X135820000Y-87046359D01*
%TO.C,R4*%
X152646359Y-85120000D02*
X152953641Y-85120000D01*
X152646359Y-85880000D02*
X152953641Y-85880000D01*
%TO.C,Q2*%
X147540000Y-83200000D02*
X147540000Y-82550000D01*
X150660000Y-83200000D02*
X150660000Y-82550000D01*
X150660000Y-83200000D02*
X150660000Y-83850000D01*
X147540000Y-83200000D02*
X147540000Y-84875000D01*
D12*
%TO.C,J1*%
X125175000Y-94550000D02*
X130400000Y-94550000D01*
X125175000Y-82550000D02*
X130400000Y-82550000D01*
X130400000Y-82550000D02*
X130400000Y-84750000D01*
D11*
X121200000Y-91950000D02*
X121200000Y-92950000D01*
D12*
X130400000Y-94550000D02*
X130400000Y-92350000D01*
D11*
X121200000Y-84150000D02*
X121200000Y-85150000D01*
%TO.C,D1*%
X155265000Y-90585000D02*
X157535000Y-90585000D01*
X155265000Y-86700000D02*
X155265000Y-90585000D01*
X157535000Y-90585000D02*
X157535000Y-86700000D01*
%TO.C,C4*%
X150560000Y-88092164D02*
X150560000Y-88307836D01*
X149840000Y-88092164D02*
X149840000Y-88307836D01*
%TO.C,D3*%
X150350000Y-91900000D02*
X155000000Y-91900000D01*
X155000000Y-95100000D02*
X155000000Y-94300000D01*
X150350000Y-95100000D02*
X155000000Y-95100000D01*
%TO.C,C3*%
X139307836Y-90640000D02*
X139092164Y-90640000D01*
X139307836Y-91360000D02*
X139092164Y-91360000D01*
%TO.C,C1*%
X140060000Y-82792164D02*
X140060000Y-83007836D01*
X139340000Y-82792164D02*
X139340000Y-83007836D01*
%TO.C,C6*%
X145292164Y-84760000D02*
X145507836Y-84760000D01*
X145292164Y-84040000D02*
X145507836Y-84040000D01*
D13*
%TO.C,IC1*%
X143050000Y-90100000D02*
X140750000Y-90100000D01*
X144825000Y-90150000D02*
X143400000Y-90150000D01*
X140750000Y-90100000D02*
X140750000Y-87100000D01*
X143050000Y-87100000D02*
X143050000Y-90100000D01*
X140750000Y-87100000D02*
X143050000Y-87100000D01*
D11*
%TO.C,C5*%
X135965000Y-90338748D02*
X135965000Y-90861252D01*
X137435000Y-90338748D02*
X137435000Y-90861252D01*
D13*
%TO.C,IC3*%
X141975000Y-81950000D02*
X142625000Y-81950000D01*
X142625000Y-84850000D02*
X141975000Y-84850000D01*
X141975000Y-84850000D02*
X141975000Y-81950000D01*
X142625000Y-81950000D02*
X142625000Y-84850000D01*
X140475000Y-81900000D02*
X141625000Y-81900000D01*
D11*
%TO.C,Q1*%
X154990000Y-83200000D02*
X154990000Y-84875000D01*
X154990000Y-83200000D02*
X154990000Y-82550000D01*
X158110000Y-83200000D02*
X158110000Y-83850000D01*
X158110000Y-83200000D02*
X158110000Y-82550000D01*
%TO.C,R3*%
X136580000Y-84856359D02*
X136580000Y-85163641D01*
X135820000Y-84856359D02*
X135820000Y-85163641D01*
%TO.C,J2*%
X145695000Y-94930000D02*
X145695000Y-92270000D01*
X143095000Y-94930000D02*
X143095000Y-93600000D01*
X144425000Y-94930000D02*
X143095000Y-94930000D01*
X148295000Y-94930000D02*
X148295000Y-92270000D01*
X145695000Y-92270000D02*
X148295000Y-92270000D01*
X145695000Y-94930000D02*
X148295000Y-94930000D01*
%TO.C,D2*%
X146100000Y-86450000D02*
X146100000Y-91100000D01*
X149300000Y-86450000D02*
X149300000Y-91100000D01*
X146100000Y-91100000D02*
X146900000Y-91100000D01*
%TD*%
M02*
