%TF.GenerationSoftware,KiCad,Pcbnew,(6.0.0)*%
%TF.CreationDate,2022-11-15T20:59:03+00:00*%
%TF.ProjectId,Grove-Spectra,47726f76-652d-4537-9065-637472612e6b,A*%
%TF.SameCoordinates,Original*%
%TF.FileFunction,Copper,L2,Bot*%
%TF.FilePolarity,Positive*%
%FSLAX46Y46*%
G04 Gerber Fmt 4.6, Leading zero omitted, Abs format (unit mm)*
G04 Created by KiCad (PCBNEW (6.0.0)) date 2022-11-15 20:59:03*
%MOMM*%
%LPD*%
G01*
G04 APERTURE LIST*
%ADD10C,0.150000*%
%TA.AperFunction,NonConductor*%
%ADD11C,0.150000*%
%TD*%
%TA.AperFunction,ComponentPad*%
%ADD12R,1.700000X1.700000*%
%TD*%
%TA.AperFunction,ComponentPad*%
%ADD13O,1.700000X1.700000*%
%TD*%
%TA.AperFunction,ViaPad*%
%ADD14C,0.500000*%
%TD*%
%TA.AperFunction,ViaPad*%
%ADD15C,0.600000*%
%TD*%
%TA.AperFunction,Conductor*%
%ADD16C,0.150000*%
%TD*%
%TA.AperFunction,Conductor*%
%ADD17C,0.200000*%
%TD*%
G04 APERTURE END LIST*
D10*
D11*
X156890476Y-97204761D02*
X156985714Y-97252380D01*
X157176190Y-97252380D01*
X157271428Y-97204761D01*
X157319047Y-97109523D01*
X157319047Y-96728571D01*
X157271428Y-96633333D01*
X157176190Y-96585714D01*
X156985714Y-96585714D01*
X156890476Y-96633333D01*
X156842857Y-96728571D01*
X156842857Y-96823809D01*
X157319047Y-96919047D01*
X156557142Y-96252380D02*
X155985714Y-96252380D01*
X156271428Y-97252380D02*
X156271428Y-96252380D01*
D12*
%TO.P,J2,1,Pin_1*%
%TO.N,+3V3*%
X144425000Y-93600000D03*
D13*
%TO.P,J2,2,Pin_2*%
%TO.N,/LDR*%
X146965000Y-93600000D03*
%TD*%
D14*
%TO.N,/GPIO_0*%
X142615700Y-91084300D03*
X141900000Y-91800000D03*
D15*
%TO.N,GND*%
X136800000Y-95300000D03*
%TO.N,+3V3*%
X137300000Y-84400000D03*
X136700000Y-88500000D03*
%TO.N,GND*%
X145900000Y-85400000D03*
X146300000Y-81400000D03*
X154400000Y-89800000D03*
X150200000Y-89500000D03*
%TO.N,+1V8*%
X151500000Y-83900000D03*
X146400000Y-82500000D03*
D14*
%TO.N,/GPIO_1*%
X157200000Y-85300000D03*
X145900000Y-87700000D03*
%TO.N,/GPIO_2*%
X149200000Y-85200000D03*
X145494259Y-87192824D03*
%TO.N,SCL*%
X151300000Y-88200000D03*
X141700000Y-88250497D03*
%TO.N,SDA*%
X141700000Y-88900000D03*
X154300000Y-87400000D03*
%TD*%
D16*
%TO.N,/GPIO_0*%
X141900000Y-91800000D02*
X142615700Y-91084300D01*
D17*
%TO.N,+3V3*%
X136700000Y-88500000D02*
X136700000Y-85000000D01*
X136700000Y-85000000D02*
X137300000Y-84400000D01*
%TO.N,+1V8*%
X151500000Y-83900000D02*
X150100000Y-82500000D01*
X150100000Y-82500000D02*
X146400000Y-82500000D01*
%TO.N,/GPIO_1*%
X149806416Y-85300000D02*
X147406416Y-87700000D01*
X147406416Y-87700000D02*
X145900000Y-87700000D01*
X157200000Y-85300000D02*
X149806416Y-85300000D01*
%TO.N,/GPIO_2*%
X147800000Y-86600000D02*
X147207176Y-87192824D01*
X149200000Y-85200000D02*
X147800000Y-86600000D01*
X147207176Y-87192824D02*
X145494259Y-87192824D01*
%TO.N,SCL*%
X141750497Y-88200000D02*
X141700000Y-88250497D01*
X151300000Y-88200000D02*
X141750497Y-88200000D01*
%TO.N,SDA*%
X154300000Y-87400000D02*
X152800000Y-88900000D01*
X152800000Y-88900000D02*
X141700000Y-88900000D01*
%TD*%
%TA.AperFunction,Conductor*%
%TO.N,GND*%
G36*
X130541484Y-76433762D02*
G01*
X130551073Y-76435025D01*
X130814407Y-76487405D01*
X130817385Y-76487997D01*
X130826735Y-76490502D01*
X130960556Y-76535928D01*
X131083865Y-76577786D01*
X131092804Y-76581489D01*
X131336335Y-76701585D01*
X131344718Y-76706425D01*
X131570489Y-76857280D01*
X131578168Y-76863173D01*
X131782318Y-77042207D01*
X131789163Y-77049052D01*
X131968197Y-77253202D01*
X131974090Y-77260881D01*
X132124945Y-77486652D01*
X132129785Y-77495035D01*
X132249881Y-77738566D01*
X132253585Y-77747508D01*
X132340868Y-78004635D01*
X132343373Y-78013985D01*
X132396344Y-78280291D01*
X132397608Y-78289886D01*
X132405668Y-78412862D01*
X132413846Y-78537628D01*
X132412915Y-78547077D01*
X132412915Y-78556275D01*
X132410394Y-78565685D01*
X132431199Y-78643330D01*
X132488039Y-78700171D01*
X132526862Y-78710574D01*
X132556275Y-78718455D01*
X132556276Y-78718455D01*
X132565685Y-78720976D01*
X132576019Y-78718207D01*
X132595172Y-78715685D01*
X147750621Y-78715685D01*
X147798187Y-78732998D01*
X147823497Y-78776835D01*
X147824486Y-78785217D01*
X147829103Y-78861540D01*
X147882530Y-79153080D01*
X147970708Y-79436055D01*
X148092353Y-79706338D01*
X148093506Y-79708246D01*
X148093508Y-79708249D01*
X148244536Y-79958080D01*
X148245689Y-79959987D01*
X148428482Y-80193305D01*
X148638065Y-80402888D01*
X148639824Y-80404266D01*
X148828426Y-80552026D01*
X148871383Y-80585681D01*
X148873288Y-80586833D01*
X148873290Y-80586834D01*
X149056009Y-80697291D01*
X149125032Y-80739017D01*
X149395315Y-80860662D01*
X149678290Y-80948840D01*
X149969830Y-81002267D01*
X150265685Y-81020163D01*
X150561540Y-81002267D01*
X150853080Y-80948840D01*
X151136055Y-80860662D01*
X151406338Y-80739017D01*
X151475362Y-80697291D01*
X151658080Y-80586834D01*
X151658082Y-80586833D01*
X151659987Y-80585681D01*
X151702945Y-80552026D01*
X151891546Y-80404266D01*
X151893305Y-80402888D01*
X152102888Y-80193305D01*
X152285681Y-79959987D01*
X152286834Y-79958080D01*
X152437862Y-79708249D01*
X152437864Y-79708246D01*
X152439017Y-79706338D01*
X152560662Y-79436055D01*
X152648840Y-79153080D01*
X152702267Y-78861540D01*
X152706884Y-78785217D01*
X152727037Y-78738783D01*
X152772323Y-78716166D01*
X152780749Y-78715685D01*
X159436198Y-78715685D01*
X159455351Y-78718207D01*
X159465685Y-78720976D01*
X159475097Y-78718454D01*
X159484839Y-78718454D01*
X159484839Y-78719466D01*
X159493498Y-78718819D01*
X159602041Y-78731049D01*
X159618189Y-78734734D01*
X159739848Y-78777304D01*
X159754765Y-78784488D01*
X159841439Y-78838950D01*
X159863893Y-78853059D01*
X159876848Y-78863390D01*
X159967980Y-78954522D01*
X159978311Y-78967477D01*
X160046882Y-79076605D01*
X160054066Y-79091522D01*
X160096636Y-79213181D01*
X160100321Y-79229329D01*
X160112551Y-79337872D01*
X160111904Y-79346531D01*
X160112916Y-79346531D01*
X160112916Y-79356273D01*
X160110394Y-79365685D01*
X160112916Y-79375097D01*
X160113163Y-79376019D01*
X160115685Y-79395172D01*
X160115685Y-86236198D01*
X160113163Y-86255351D01*
X160110394Y-86265685D01*
X160115685Y-86285431D01*
X160131199Y-86343330D01*
X160188039Y-86400171D01*
X160265685Y-86420976D01*
X160275094Y-86418455D01*
X160284293Y-86418455D01*
X160293741Y-86417524D01*
X160541484Y-86433762D01*
X160551073Y-86435025D01*
X160814407Y-86487405D01*
X160817385Y-86487997D01*
X160826735Y-86490502D01*
X160960556Y-86535928D01*
X161083865Y-86577786D01*
X161092804Y-86581489D01*
X161336335Y-86701585D01*
X161344718Y-86706425D01*
X161570489Y-86857280D01*
X161578168Y-86863173D01*
X161782318Y-87042207D01*
X161789163Y-87049052D01*
X161968197Y-87253202D01*
X161974090Y-87260881D01*
X162124945Y-87486652D01*
X162129785Y-87495035D01*
X162249881Y-87738566D01*
X162253584Y-87747505D01*
X162272959Y-87804581D01*
X162340868Y-88004635D01*
X162343373Y-88013985D01*
X162394709Y-88272069D01*
X162396344Y-88280291D01*
X162397608Y-88289886D01*
X162411195Y-88497172D01*
X162415368Y-88560845D01*
X162415368Y-88570521D01*
X162397608Y-88841482D01*
X162396345Y-88851073D01*
X162351895Y-89074540D01*
X162343373Y-89117385D01*
X162340868Y-89126735D01*
X162253585Y-89383862D01*
X162249881Y-89392804D01*
X162129785Y-89636335D01*
X162124945Y-89644718D01*
X161974090Y-89870489D01*
X161968197Y-89878168D01*
X161789163Y-90082318D01*
X161782318Y-90089163D01*
X161578168Y-90268197D01*
X161570489Y-90274090D01*
X161344718Y-90424945D01*
X161336335Y-90429785D01*
X161092804Y-90549881D01*
X161083865Y-90553584D01*
X160993358Y-90584307D01*
X160826735Y-90640868D01*
X160817385Y-90643373D01*
X160551073Y-90696345D01*
X160541484Y-90697608D01*
X160293741Y-90713846D01*
X160284293Y-90712915D01*
X160275095Y-90712915D01*
X160265685Y-90710394D01*
X160188040Y-90731199D01*
X160131199Y-90788039D01*
X160128678Y-90797449D01*
X160114289Y-90851150D01*
X160110394Y-90865685D01*
X160112916Y-90875096D01*
X160113163Y-90876019D01*
X160115685Y-90895172D01*
X160115685Y-97736198D01*
X160113163Y-97755351D01*
X160110394Y-97765685D01*
X160112916Y-97775097D01*
X160112916Y-97784839D01*
X160111904Y-97784839D01*
X160112551Y-97793498D01*
X160100321Y-97902041D01*
X160096636Y-97918189D01*
X160054066Y-98039848D01*
X160046882Y-98054765D01*
X160005216Y-98121075D01*
X159978311Y-98163893D01*
X159967980Y-98176848D01*
X159876848Y-98267980D01*
X159863893Y-98278311D01*
X159754765Y-98346882D01*
X159739848Y-98354066D01*
X159618189Y-98396636D01*
X159602041Y-98400321D01*
X159493498Y-98412551D01*
X159484839Y-98411904D01*
X159484839Y-98412916D01*
X159475097Y-98412916D01*
X159465685Y-98410394D01*
X159456273Y-98412916D01*
X159455351Y-98413163D01*
X159436198Y-98415685D01*
X152780749Y-98415685D01*
X152733183Y-98398372D01*
X152707873Y-98354535D01*
X152706884Y-98346153D01*
X152702780Y-98278311D01*
X152702267Y-98269830D01*
X152676642Y-98130000D01*
X155515476Y-98130000D01*
X157884524Y-98130000D01*
X157884524Y-95470000D01*
X155515476Y-95470000D01*
X155515476Y-98130000D01*
X152676642Y-98130000D01*
X152648840Y-97978290D01*
X152560662Y-97695315D01*
X152439017Y-97425032D01*
X152337347Y-97256848D01*
X152286834Y-97173290D01*
X152286833Y-97173288D01*
X152285681Y-97171383D01*
X152102888Y-96938065D01*
X151893305Y-96728482D01*
X151813207Y-96665729D01*
X151661741Y-96547063D01*
X151661739Y-96547062D01*
X151659987Y-96545689D01*
X151658080Y-96544536D01*
X151408249Y-96393508D01*
X151408246Y-96393506D01*
X151406338Y-96392353D01*
X151136055Y-96270708D01*
X150853080Y-96182530D01*
X150561540Y-96129103D01*
X150265685Y-96111207D01*
X149969830Y-96129103D01*
X149678290Y-96182530D01*
X149395315Y-96270708D01*
X149125032Y-96392353D01*
X149123124Y-96393506D01*
X149123121Y-96393508D01*
X148873290Y-96544536D01*
X148871383Y-96545689D01*
X148869631Y-96547062D01*
X148869629Y-96547063D01*
X148718163Y-96665729D01*
X148638065Y-96728482D01*
X148428482Y-96938065D01*
X148245689Y-97171383D01*
X148244537Y-97173288D01*
X148244536Y-97173290D01*
X148194024Y-97256848D01*
X148092353Y-97425032D01*
X147970708Y-97695315D01*
X147882530Y-97978290D01*
X147829103Y-98269830D01*
X147828590Y-98278311D01*
X147824486Y-98346153D01*
X147804333Y-98392587D01*
X147759047Y-98415204D01*
X147750621Y-98415685D01*
X132595172Y-98415685D01*
X132576019Y-98413163D01*
X132575097Y-98412916D01*
X132565685Y-98410394D01*
X132545939Y-98415685D01*
X132488040Y-98431199D01*
X132431199Y-98488039D01*
X132414645Y-98549820D01*
X132410394Y-98565685D01*
X132412915Y-98575094D01*
X132412915Y-98584293D01*
X132413846Y-98593741D01*
X132405507Y-98720976D01*
X132397608Y-98841482D01*
X132396344Y-98851079D01*
X132343373Y-99117385D01*
X132340868Y-99126735D01*
X132253585Y-99383862D01*
X132249881Y-99392804D01*
X132129785Y-99636335D01*
X132124945Y-99644718D01*
X131974090Y-99870489D01*
X131968197Y-99878168D01*
X131789163Y-100082318D01*
X131782318Y-100089163D01*
X131578168Y-100268197D01*
X131570489Y-100274090D01*
X131344718Y-100424945D01*
X131336335Y-100429785D01*
X131092804Y-100549881D01*
X131083865Y-100553584D01*
X130989310Y-100585681D01*
X130826735Y-100640868D01*
X130817385Y-100643373D01*
X130551073Y-100696345D01*
X130541484Y-100697608D01*
X130270521Y-100715368D01*
X130260849Y-100715368D01*
X129989886Y-100697608D01*
X129980297Y-100696345D01*
X129713985Y-100643373D01*
X129704635Y-100640868D01*
X129542060Y-100585681D01*
X129447505Y-100553584D01*
X129438566Y-100549881D01*
X129195035Y-100429785D01*
X129186652Y-100424945D01*
X128960881Y-100274090D01*
X128953202Y-100268197D01*
X128749052Y-100089163D01*
X128742207Y-100082318D01*
X128563173Y-99878168D01*
X128557280Y-99870489D01*
X128406425Y-99644718D01*
X128401585Y-99636335D01*
X128281489Y-99392804D01*
X128277785Y-99383862D01*
X128190502Y-99126735D01*
X128187997Y-99117385D01*
X128135026Y-98851079D01*
X128133762Y-98841482D01*
X128125864Y-98720976D01*
X128117524Y-98593741D01*
X128118455Y-98584293D01*
X128118455Y-98575095D01*
X128120976Y-98565685D01*
X128100171Y-98488040D01*
X128043331Y-98431199D01*
X128004508Y-98420796D01*
X127975095Y-98412915D01*
X127975094Y-98412915D01*
X127965685Y-98410394D01*
X127955427Y-98413143D01*
X127955351Y-98413163D01*
X127936198Y-98415685D01*
X121095172Y-98415685D01*
X121076019Y-98413163D01*
X121075097Y-98412916D01*
X121065685Y-98410394D01*
X121056273Y-98412916D01*
X121046531Y-98412916D01*
X121046531Y-98411904D01*
X121037872Y-98412551D01*
X120929329Y-98400321D01*
X120913181Y-98396636D01*
X120791522Y-98354066D01*
X120776605Y-98346882D01*
X120667477Y-98278311D01*
X120654522Y-98267980D01*
X120563390Y-98176848D01*
X120553059Y-98163893D01*
X120526154Y-98121075D01*
X120484488Y-98054765D01*
X120477304Y-98039848D01*
X120434734Y-97918189D01*
X120431049Y-97902041D01*
X120418819Y-97793498D01*
X120419466Y-97784839D01*
X120418454Y-97784839D01*
X120418454Y-97775097D01*
X120420976Y-97765685D01*
X120418207Y-97755351D01*
X120415685Y-97736198D01*
X120415685Y-94464820D01*
X143424500Y-94464820D01*
X143433233Y-94508722D01*
X143466496Y-94558504D01*
X143516278Y-94591767D01*
X143523424Y-94593188D01*
X143523425Y-94593189D01*
X143556610Y-94599790D01*
X143556611Y-94599790D01*
X143560180Y-94600500D01*
X145289820Y-94600500D01*
X145293389Y-94599790D01*
X145293390Y-94599790D01*
X145326575Y-94593189D01*
X145326576Y-94593188D01*
X145333722Y-94591767D01*
X145383504Y-94558504D01*
X145416767Y-94508722D01*
X145425500Y-94464820D01*
X145425500Y-93585963D01*
X145959757Y-93585963D01*
X145960060Y-93589572D01*
X145960060Y-93589574D01*
X145963293Y-93628071D01*
X145976175Y-93781483D01*
X146030258Y-93970091D01*
X146031911Y-93973307D01*
X146118288Y-94141380D01*
X146118291Y-94141385D01*
X146119944Y-94144601D01*
X146241818Y-94298369D01*
X146391238Y-94425535D01*
X146394400Y-94427302D01*
X146559354Y-94519492D01*
X146559358Y-94519494D01*
X146562513Y-94521257D01*
X146565949Y-94522374D01*
X146565955Y-94522376D01*
X146658496Y-94552444D01*
X146749118Y-94581889D01*
X146809541Y-94589094D01*
X146940346Y-94604692D01*
X146940349Y-94604692D01*
X146943946Y-94605121D01*
X147013228Y-94599790D01*
X147135965Y-94590346D01*
X147135966Y-94590346D01*
X147139576Y-94590068D01*
X147328556Y-94537303D01*
X147331783Y-94535673D01*
X147500455Y-94450471D01*
X147500458Y-94450469D01*
X147503689Y-94448837D01*
X147658303Y-94328040D01*
X147786509Y-94179511D01*
X147788292Y-94176372D01*
X147788295Y-94176368D01*
X147834967Y-94094210D01*
X147883425Y-94008909D01*
X147895269Y-93973307D01*
X147944215Y-93826168D01*
X147945358Y-93822732D01*
X147950130Y-93784962D01*
X147969691Y-93630115D01*
X147969691Y-93630111D01*
X147969949Y-93628071D01*
X147970341Y-93600000D01*
X147951194Y-93404728D01*
X147894484Y-93216894D01*
X147802370Y-93043653D01*
X147678361Y-92891602D01*
X147527180Y-92766535D01*
X147512814Y-92758767D01*
X147357768Y-92674934D01*
X147354585Y-92673213D01*
X147351135Y-92672145D01*
X147351130Y-92672143D01*
X147232841Y-92635527D01*
X147167152Y-92615193D01*
X146972019Y-92594683D01*
X146776618Y-92612466D01*
X146773145Y-92613488D01*
X146773146Y-92613488D01*
X146591864Y-92666842D01*
X146591860Y-92666844D01*
X146588393Y-92667864D01*
X146497115Y-92715583D01*
X146417719Y-92757090D01*
X146417716Y-92757092D01*
X146414512Y-92758767D01*
X146411694Y-92761033D01*
X146411692Y-92761034D01*
X146264419Y-92879444D01*
X146264416Y-92879447D01*
X146261600Y-92881711D01*
X146135480Y-93032016D01*
X146040956Y-93203954D01*
X146039864Y-93207397D01*
X146039863Y-93207399D01*
X146035753Y-93220357D01*
X145981628Y-93390978D01*
X145981225Y-93394574D01*
X145981224Y-93394577D01*
X145972311Y-93474039D01*
X145959757Y-93585963D01*
X145425500Y-93585963D01*
X145425500Y-92735180D01*
X145416767Y-92691278D01*
X145383504Y-92641496D01*
X145333722Y-92608233D01*
X145326576Y-92606812D01*
X145326575Y-92606811D01*
X145293390Y-92600210D01*
X145293389Y-92600210D01*
X145289820Y-92599500D01*
X143560180Y-92599500D01*
X143556611Y-92600210D01*
X143556610Y-92600210D01*
X143523425Y-92606811D01*
X143523424Y-92606812D01*
X143516278Y-92608233D01*
X143466496Y-92641496D01*
X143433233Y-92691278D01*
X143424500Y-92735180D01*
X143424500Y-94464820D01*
X120415685Y-94464820D01*
X120415685Y-91800000D01*
X141494508Y-91800000D01*
X141495419Y-91805752D01*
X141513442Y-91919549D01*
X141513443Y-91919552D01*
X141514354Y-91925304D01*
X141516999Y-91930495D01*
X141517000Y-91930498D01*
X141569304Y-92033150D01*
X141569306Y-92033152D01*
X141571950Y-92038342D01*
X141661658Y-92128050D01*
X141666848Y-92130694D01*
X141666850Y-92130696D01*
X141769502Y-92183000D01*
X141769505Y-92183001D01*
X141774696Y-92185646D01*
X141780448Y-92186557D01*
X141780451Y-92186558D01*
X141894248Y-92204581D01*
X141900000Y-92205492D01*
X141905752Y-92204581D01*
X142019549Y-92186558D01*
X142019552Y-92186557D01*
X142025304Y-92185646D01*
X142030495Y-92183001D01*
X142030498Y-92183000D01*
X142133150Y-92130696D01*
X142133152Y-92130694D01*
X142138342Y-92128050D01*
X142228050Y-92038342D01*
X142230694Y-92033152D01*
X142230696Y-92033150D01*
X142283000Y-91930498D01*
X142283001Y-91930495D01*
X142285646Y-91925304D01*
X142286557Y-91919552D01*
X142286558Y-91919549D01*
X142304581Y-91805752D01*
X142305492Y-91800000D01*
X142299551Y-91762492D01*
X142309209Y-91712805D01*
X142320314Y-91698591D01*
X142514291Y-91504614D01*
X142560167Y-91483222D01*
X142578189Y-91483851D01*
X142615700Y-91489792D01*
X142621452Y-91488881D01*
X142735249Y-91470858D01*
X142735252Y-91470857D01*
X142741004Y-91469946D01*
X142746195Y-91467301D01*
X142746198Y-91467300D01*
X142848850Y-91414996D01*
X142848852Y-91414994D01*
X142854042Y-91412350D01*
X142943750Y-91322642D01*
X142946394Y-91317452D01*
X142946396Y-91317450D01*
X142998700Y-91214798D01*
X142998701Y-91214795D01*
X143001346Y-91209604D01*
X143002257Y-91203852D01*
X143002258Y-91203849D01*
X143020281Y-91090052D01*
X143020281Y-91090050D01*
X143021192Y-91084300D01*
X143009597Y-91011090D01*
X143002258Y-90964751D01*
X143002257Y-90964748D01*
X143001346Y-90958996D01*
X142998700Y-90953802D01*
X142946396Y-90851150D01*
X142946394Y-90851148D01*
X142943750Y-90845958D01*
X142854042Y-90756250D01*
X142848852Y-90753606D01*
X142848850Y-90753604D01*
X142746198Y-90701300D01*
X142746195Y-90701299D01*
X142741004Y-90698654D01*
X142735252Y-90697743D01*
X142735249Y-90697742D01*
X142621452Y-90679719D01*
X142615700Y-90678808D01*
X142609948Y-90679719D01*
X142496151Y-90697742D01*
X142496148Y-90697743D01*
X142490396Y-90698654D01*
X142485205Y-90701299D01*
X142485202Y-90701300D01*
X142382550Y-90753604D01*
X142382548Y-90753606D01*
X142377358Y-90756250D01*
X142287650Y-90845958D01*
X142285006Y-90851148D01*
X142285004Y-90851150D01*
X142232700Y-90953802D01*
X142230054Y-90958996D01*
X142229143Y-90964748D01*
X142229142Y-90964751D01*
X142221803Y-91011090D01*
X142210208Y-91084300D01*
X142216149Y-91121808D01*
X142206491Y-91171495D01*
X142195386Y-91185709D01*
X142001409Y-91379686D01*
X141955533Y-91401078D01*
X141937511Y-91400449D01*
X141900000Y-91394508D01*
X141894248Y-91395419D01*
X141780451Y-91413442D01*
X141780448Y-91413443D01*
X141774696Y-91414354D01*
X141769505Y-91416999D01*
X141769502Y-91417000D01*
X141666850Y-91469304D01*
X141666848Y-91469306D01*
X141661658Y-91471950D01*
X141571950Y-91561658D01*
X141569306Y-91566848D01*
X141569304Y-91566850D01*
X141517000Y-91669502D01*
X141514354Y-91674696D01*
X141513443Y-91680448D01*
X141513442Y-91680451D01*
X141500448Y-91762494D01*
X141494508Y-91800000D01*
X120415685Y-91800000D01*
X120415685Y-91080749D01*
X120432998Y-91033183D01*
X120476835Y-91007873D01*
X120485217Y-91006884D01*
X120499012Y-91006049D01*
X120561540Y-91002267D01*
X120853080Y-90948840D01*
X121136055Y-90860662D01*
X121406338Y-90739017D01*
X121423443Y-90728677D01*
X121658080Y-90586834D01*
X121658082Y-90586833D01*
X121659987Y-90585681D01*
X121702945Y-90552026D01*
X121813207Y-90465641D01*
X121893305Y-90402888D01*
X122102888Y-90193305D01*
X122285681Y-89959987D01*
X122335142Y-89878168D01*
X122437862Y-89708249D01*
X122437864Y-89708246D01*
X122439017Y-89706338D01*
X122560662Y-89436055D01*
X122648840Y-89153080D01*
X122691975Y-88917700D01*
X122701863Y-88863745D01*
X122701863Y-88863744D01*
X122702267Y-88861540D01*
X122720163Y-88565685D01*
X122715853Y-88494440D01*
X136244901Y-88494440D01*
X136245584Y-88499663D01*
X136245584Y-88499666D01*
X136259423Y-88605492D01*
X136261633Y-88622394D01*
X136313605Y-88740510D01*
X136396639Y-88839291D01*
X136504060Y-88910796D01*
X136509092Y-88912368D01*
X136509094Y-88912369D01*
X136544714Y-88923497D01*
X136627233Y-88949278D01*
X136632501Y-88949375D01*
X136632504Y-88949375D01*
X136686552Y-88950365D01*
X136756255Y-88951643D01*
X136761338Y-88950257D01*
X136761340Y-88950257D01*
X136875671Y-88919086D01*
X136880755Y-88917700D01*
X136909582Y-88900000D01*
X141294508Y-88900000D01*
X141295419Y-88905752D01*
X141313442Y-89019549D01*
X141313443Y-89019552D01*
X141314354Y-89025304D01*
X141316999Y-89030495D01*
X141317000Y-89030498D01*
X141369304Y-89133150D01*
X141369306Y-89133152D01*
X141371950Y-89138342D01*
X141461658Y-89228050D01*
X141466848Y-89230694D01*
X141466850Y-89230696D01*
X141569502Y-89283000D01*
X141569505Y-89283001D01*
X141574696Y-89285646D01*
X141580448Y-89286557D01*
X141580451Y-89286558D01*
X141694248Y-89304581D01*
X141700000Y-89305492D01*
X141705752Y-89304581D01*
X141819549Y-89286558D01*
X141819552Y-89286557D01*
X141825304Y-89285646D01*
X141830495Y-89283001D01*
X141830498Y-89283000D01*
X141933150Y-89230696D01*
X141933152Y-89230694D01*
X141938342Y-89228050D01*
X141994218Y-89172174D01*
X142040094Y-89150782D01*
X142046544Y-89150500D01*
X152768038Y-89150500D01*
X152782475Y-89151922D01*
X152800000Y-89155408D01*
X152897741Y-89135966D01*
X152918424Y-89122146D01*
X152927536Y-89116057D01*
X152927537Y-89116056D01*
X152980601Y-89080601D01*
X152990530Y-89065741D01*
X152999733Y-89054527D01*
X154229112Y-87825148D01*
X154274988Y-87803756D01*
X154293016Y-87804386D01*
X154300000Y-87805492D01*
X154305752Y-87804581D01*
X154419549Y-87786558D01*
X154419552Y-87786557D01*
X154425304Y-87785646D01*
X154430495Y-87783001D01*
X154430498Y-87783000D01*
X154533150Y-87730696D01*
X154533152Y-87730694D01*
X154538342Y-87728050D01*
X154628050Y-87638342D01*
X154630694Y-87633152D01*
X154630696Y-87633150D01*
X154683000Y-87530498D01*
X154683001Y-87530495D01*
X154685646Y-87525304D01*
X154686557Y-87519552D01*
X154686558Y-87519549D01*
X154704581Y-87405752D01*
X154704581Y-87405749D01*
X154705492Y-87400000D01*
X154692525Y-87318128D01*
X154686558Y-87280451D01*
X154686557Y-87280448D01*
X154685646Y-87274696D01*
X154676552Y-87256848D01*
X154630696Y-87166850D01*
X154630694Y-87166848D01*
X154628050Y-87161658D01*
X154538342Y-87071950D01*
X154533152Y-87069306D01*
X154533150Y-87069304D01*
X154430498Y-87017000D01*
X154430495Y-87016999D01*
X154425304Y-87014354D01*
X154419552Y-87013443D01*
X154419549Y-87013442D01*
X154305752Y-86995419D01*
X154300000Y-86994508D01*
X154294248Y-86995419D01*
X154180451Y-87013442D01*
X154180448Y-87013443D01*
X154174696Y-87014354D01*
X154169505Y-87016999D01*
X154169502Y-87017000D01*
X154066850Y-87069304D01*
X154066848Y-87069306D01*
X154061658Y-87071950D01*
X153971950Y-87161658D01*
X153969306Y-87166848D01*
X153969304Y-87166850D01*
X153923448Y-87256848D01*
X153914354Y-87274696D01*
X153913443Y-87280448D01*
X153913442Y-87280451D01*
X153907475Y-87318128D01*
X153894508Y-87400000D01*
X153895419Y-87405749D01*
X153895614Y-87406980D01*
X153895419Y-87407984D01*
X153895419Y-87411576D01*
X153894721Y-87411576D01*
X153885959Y-87456670D01*
X153874852Y-87470888D01*
X152717914Y-88627826D01*
X152672038Y-88649218D01*
X152665588Y-88649500D01*
X151595544Y-88649500D01*
X151547978Y-88632187D01*
X151522668Y-88588350D01*
X151531458Y-88538500D01*
X151543218Y-88523174D01*
X151628050Y-88438342D01*
X151630694Y-88433152D01*
X151630696Y-88433150D01*
X151683000Y-88330498D01*
X151683001Y-88330495D01*
X151685646Y-88325304D01*
X151686557Y-88319552D01*
X151686558Y-88319549D01*
X151704581Y-88205752D01*
X151705492Y-88200000D01*
X151694737Y-88132092D01*
X151686558Y-88080451D01*
X151686557Y-88080448D01*
X151685646Y-88074696D01*
X151683000Y-88069502D01*
X151630696Y-87966850D01*
X151630694Y-87966848D01*
X151628050Y-87961658D01*
X151538342Y-87871950D01*
X151533152Y-87869306D01*
X151533150Y-87869304D01*
X151430498Y-87817000D01*
X151430495Y-87816999D01*
X151425304Y-87814354D01*
X151419552Y-87813443D01*
X151419549Y-87813442D01*
X151305752Y-87795419D01*
X151300000Y-87794508D01*
X151294248Y-87795419D01*
X151180451Y-87813442D01*
X151180448Y-87813443D01*
X151174696Y-87814354D01*
X151169505Y-87816999D01*
X151169502Y-87817000D01*
X151066850Y-87869304D01*
X151066848Y-87869306D01*
X151061658Y-87871950D01*
X151005782Y-87927826D01*
X150959906Y-87949218D01*
X150953456Y-87949500D01*
X147689828Y-87949500D01*
X147642262Y-87932187D01*
X147616952Y-87888350D01*
X147625742Y-87838500D01*
X147637502Y-87823174D01*
X148756947Y-86703730D01*
X149888503Y-85572174D01*
X149934379Y-85550782D01*
X149940829Y-85550500D01*
X156853456Y-85550500D01*
X156901022Y-85567813D01*
X156905782Y-85572174D01*
X156961658Y-85628050D01*
X156966848Y-85630694D01*
X156966850Y-85630696D01*
X157069502Y-85683000D01*
X157069505Y-85683001D01*
X157074696Y-85685646D01*
X157080448Y-85686557D01*
X157080451Y-85686558D01*
X157194248Y-85704581D01*
X157200000Y-85705492D01*
X157205752Y-85704581D01*
X157319549Y-85686558D01*
X157319552Y-85686557D01*
X157325304Y-85685646D01*
X157330495Y-85683001D01*
X157330498Y-85683000D01*
X157433150Y-85630696D01*
X157433152Y-85630694D01*
X157438342Y-85628050D01*
X157528050Y-85538342D01*
X157530694Y-85533152D01*
X157530696Y-85533150D01*
X157583000Y-85430498D01*
X157583001Y-85430495D01*
X157585646Y-85425304D01*
X157586557Y-85419552D01*
X157586558Y-85419549D01*
X157604581Y-85305752D01*
X157605492Y-85300000D01*
X157596659Y-85244227D01*
X157586558Y-85180451D01*
X157586557Y-85180448D01*
X157585646Y-85174696D01*
X157583000Y-85169502D01*
X157530696Y-85066850D01*
X157530694Y-85066848D01*
X157528050Y-85061658D01*
X157438342Y-84971950D01*
X157433152Y-84969306D01*
X157433150Y-84969304D01*
X157330498Y-84917000D01*
X157330495Y-84916999D01*
X157325304Y-84914354D01*
X157319552Y-84913443D01*
X157319549Y-84913442D01*
X157205752Y-84895419D01*
X157200000Y-84894508D01*
X157194248Y-84895419D01*
X157080451Y-84913442D01*
X157080448Y-84913443D01*
X157074696Y-84914354D01*
X157069505Y-84916999D01*
X157069502Y-84917000D01*
X156966850Y-84969304D01*
X156966848Y-84969306D01*
X156961658Y-84971950D01*
X156905782Y-85027826D01*
X156859906Y-85049218D01*
X156853456Y-85049500D01*
X149838382Y-85049500D01*
X149823947Y-85048078D01*
X149806416Y-85044591D01*
X149799268Y-85046013D01*
X149715823Y-85062612D01*
X149715822Y-85062613D01*
X149708676Y-85064034D01*
X149702616Y-85068083D01*
X149682081Y-85081804D01*
X149632912Y-85093835D01*
X149587514Y-85071447D01*
X149575035Y-85053871D01*
X149547586Y-85000000D01*
X149528050Y-84961658D01*
X149438342Y-84871950D01*
X149433152Y-84869306D01*
X149433150Y-84869304D01*
X149330498Y-84817000D01*
X149330495Y-84816999D01*
X149325304Y-84814354D01*
X149319552Y-84813443D01*
X149319549Y-84813442D01*
X149205752Y-84795419D01*
X149200000Y-84794508D01*
X149194248Y-84795419D01*
X149080451Y-84813442D01*
X149080448Y-84813443D01*
X149074696Y-84814354D01*
X149069505Y-84816999D01*
X149069502Y-84817000D01*
X148966850Y-84869304D01*
X148966848Y-84869306D01*
X148961658Y-84871950D01*
X148871950Y-84961658D01*
X148869306Y-84966848D01*
X148869304Y-84966850D01*
X148817000Y-85069502D01*
X148814354Y-85074696D01*
X148813443Y-85080448D01*
X148813442Y-85080451D01*
X148799338Y-85169502D01*
X148794508Y-85200000D01*
X148795419Y-85205749D01*
X148795614Y-85206980D01*
X148795419Y-85207984D01*
X148795419Y-85211576D01*
X148794721Y-85211576D01*
X148785959Y-85256670D01*
X148774852Y-85270888D01*
X147640320Y-86405420D01*
X147640317Y-86405422D01*
X147640311Y-86405428D01*
X147125090Y-86920650D01*
X147079214Y-86942042D01*
X147072764Y-86942324D01*
X145840803Y-86942324D01*
X145793237Y-86925011D01*
X145788477Y-86920650D01*
X145732601Y-86864774D01*
X145727411Y-86862130D01*
X145727409Y-86862128D01*
X145624757Y-86809824D01*
X145624754Y-86809823D01*
X145619563Y-86807178D01*
X145613811Y-86806267D01*
X145613808Y-86806266D01*
X145500011Y-86788243D01*
X145494259Y-86787332D01*
X145488507Y-86788243D01*
X145374710Y-86806266D01*
X145374707Y-86806267D01*
X145368955Y-86807178D01*
X145363764Y-86809823D01*
X145363761Y-86809824D01*
X145261109Y-86862128D01*
X145261107Y-86862130D01*
X145255917Y-86864774D01*
X145166209Y-86954482D01*
X145163565Y-86959672D01*
X145163563Y-86959674D01*
X145111259Y-87062326D01*
X145108613Y-87067520D01*
X145107702Y-87073272D01*
X145107701Y-87073275D01*
X145093703Y-87161658D01*
X145088767Y-87192824D01*
X145089678Y-87198576D01*
X145107701Y-87312373D01*
X145107702Y-87312376D01*
X145108613Y-87318128D01*
X145111258Y-87323319D01*
X145111259Y-87323322D01*
X145163563Y-87425974D01*
X145163565Y-87425976D01*
X145166209Y-87431166D01*
X145255917Y-87520874D01*
X145261107Y-87523518D01*
X145261109Y-87523520D01*
X145363761Y-87575824D01*
X145363764Y-87575825D01*
X145368955Y-87578470D01*
X145374707Y-87579381D01*
X145374710Y-87579382D01*
X145437124Y-87589267D01*
X145481397Y-87613808D01*
X145499537Y-87661065D01*
X145498637Y-87673929D01*
X145494508Y-87700000D01*
X145495419Y-87705752D01*
X145513442Y-87819549D01*
X145513443Y-87819552D01*
X145514354Y-87825304D01*
X145522813Y-87841906D01*
X145528983Y-87892145D01*
X145501414Y-87934598D01*
X145456879Y-87949500D01*
X141996047Y-87949500D01*
X141948481Y-87932187D01*
X141943721Y-87927826D01*
X141938342Y-87922447D01*
X141933152Y-87919803D01*
X141933150Y-87919801D01*
X141830498Y-87867497D01*
X141830495Y-87867496D01*
X141825304Y-87864851D01*
X141819552Y-87863940D01*
X141819549Y-87863939D01*
X141705752Y-87845916D01*
X141700000Y-87845005D01*
X141694248Y-87845916D01*
X141580451Y-87863939D01*
X141580448Y-87863940D01*
X141574696Y-87864851D01*
X141569505Y-87867496D01*
X141569502Y-87867497D01*
X141466850Y-87919801D01*
X141466848Y-87919803D01*
X141461658Y-87922447D01*
X141371950Y-88012155D01*
X141369306Y-88017345D01*
X141369304Y-88017347D01*
X141317000Y-88119999D01*
X141314354Y-88125193D01*
X141313443Y-88130945D01*
X141313442Y-88130948D01*
X141303417Y-88194248D01*
X141294508Y-88250497D01*
X141295419Y-88256249D01*
X141313442Y-88370046D01*
X141313443Y-88370049D01*
X141314354Y-88375801D01*
X141316999Y-88380992D01*
X141317000Y-88380995D01*
X141369304Y-88483647D01*
X141369306Y-88483649D01*
X141371950Y-88488839D01*
X141406034Y-88522923D01*
X141427426Y-88568799D01*
X141414325Y-88617694D01*
X141406036Y-88627572D01*
X141371950Y-88661658D01*
X141369306Y-88666848D01*
X141369304Y-88666850D01*
X141322650Y-88758414D01*
X141314354Y-88774696D01*
X141313443Y-88780448D01*
X141313442Y-88780451D01*
X141302399Y-88850179D01*
X141294508Y-88900000D01*
X136909582Y-88900000D01*
X136990724Y-88850179D01*
X137077322Y-88754507D01*
X137133588Y-88638375D01*
X137154997Y-88511120D01*
X137155133Y-88500000D01*
X137151148Y-88472174D01*
X137137586Y-88377472D01*
X137137585Y-88377469D01*
X137136839Y-88372259D01*
X137132247Y-88362159D01*
X137085610Y-88259586D01*
X137085608Y-88259583D01*
X137083428Y-88254788D01*
X137076003Y-88246170D01*
X137002633Y-88161020D01*
X137002632Y-88161019D01*
X136999193Y-88157028D01*
X136994774Y-88154164D01*
X136994772Y-88154162D01*
X136984251Y-88147343D01*
X136953752Y-88106943D01*
X136950500Y-88085246D01*
X136950500Y-85134412D01*
X136967813Y-85086846D01*
X136972174Y-85082086D01*
X137183144Y-84871116D01*
X137229020Y-84849724D01*
X137236826Y-84849454D01*
X137266305Y-84849994D01*
X137356255Y-84851643D01*
X137361338Y-84850257D01*
X137361340Y-84850257D01*
X137475671Y-84819086D01*
X137480755Y-84817700D01*
X137590724Y-84750179D01*
X137677322Y-84654507D01*
X137733588Y-84538375D01*
X137754997Y-84411120D01*
X137755133Y-84400000D01*
X137742952Y-84314943D01*
X137737586Y-84277472D01*
X137737585Y-84277469D01*
X137736839Y-84272259D01*
X137723177Y-84242211D01*
X137685610Y-84159586D01*
X137685608Y-84159583D01*
X137683428Y-84154788D01*
X137679099Y-84149763D01*
X137602633Y-84061020D01*
X137602632Y-84061019D01*
X137599193Y-84057028D01*
X137594774Y-84054164D01*
X137594772Y-84054162D01*
X137495329Y-83989708D01*
X137495330Y-83989708D01*
X137490906Y-83986841D01*
X137485857Y-83985331D01*
X137485855Y-83985330D01*
X137372326Y-83951377D01*
X137372325Y-83951377D01*
X137367273Y-83949866D01*
X137301771Y-83949466D01*
X137243501Y-83949110D01*
X137243500Y-83949110D01*
X137238231Y-83949078D01*
X137114155Y-83984539D01*
X137005019Y-84053399D01*
X137001531Y-84057348D01*
X137001529Y-84057350D01*
X136998288Y-84061020D01*
X136919596Y-84150122D01*
X136917357Y-84154891D01*
X136917355Y-84154894D01*
X136879626Y-84235256D01*
X136864754Y-84266932D01*
X136844901Y-84394440D01*
X136852479Y-84452390D01*
X136841480Y-84501798D01*
X136831430Y-84514310D01*
X136545473Y-84800267D01*
X136534259Y-84809470D01*
X136526950Y-84814354D01*
X136519399Y-84819399D01*
X136499435Y-84849278D01*
X136464034Y-84902259D01*
X136462613Y-84909404D01*
X136462612Y-84909406D01*
X136449352Y-84976069D01*
X136444592Y-85000000D01*
X136446014Y-85007149D01*
X136448078Y-85017525D01*
X136449500Y-85031962D01*
X136449500Y-88084526D01*
X136432187Y-88132092D01*
X136414993Y-88147106D01*
X136405019Y-88153399D01*
X136401530Y-88157349D01*
X136401527Y-88157352D01*
X136398288Y-88161020D01*
X136319596Y-88250122D01*
X136317357Y-88254891D01*
X136317355Y-88254894D01*
X136300926Y-88289888D01*
X136264754Y-88366932D01*
X136244901Y-88494440D01*
X122715853Y-88494440D01*
X122702267Y-88269830D01*
X122699511Y-88254788D01*
X122682327Y-88161020D01*
X122648840Y-87978290D01*
X122560662Y-87695315D01*
X122439017Y-87425032D01*
X122420408Y-87394248D01*
X122286834Y-87173290D01*
X122286833Y-87173288D01*
X122285681Y-87171383D01*
X122102888Y-86938065D01*
X121893305Y-86728482D01*
X121705682Y-86581489D01*
X121661741Y-86547063D01*
X121661739Y-86547062D01*
X121659987Y-86545689D01*
X121658080Y-86544536D01*
X121408249Y-86393508D01*
X121408246Y-86393506D01*
X121406338Y-86392353D01*
X121136055Y-86270708D01*
X120853080Y-86182530D01*
X120561540Y-86129103D01*
X120499012Y-86125321D01*
X120485217Y-86124486D01*
X120438783Y-86104333D01*
X120416166Y-86059047D01*
X120415685Y-86050621D01*
X120415685Y-82494440D01*
X145944901Y-82494440D01*
X145961633Y-82622394D01*
X146013605Y-82740510D01*
X146096639Y-82839291D01*
X146204060Y-82910796D01*
X146209092Y-82912368D01*
X146209094Y-82912369D01*
X146244714Y-82923497D01*
X146327233Y-82949278D01*
X146332501Y-82949375D01*
X146332504Y-82949375D01*
X146386552Y-82950365D01*
X146456255Y-82951643D01*
X146461338Y-82950257D01*
X146461340Y-82950257D01*
X146575671Y-82919086D01*
X146580755Y-82917700D01*
X146690724Y-82850179D01*
X146758918Y-82774840D01*
X146803673Y-82751193D01*
X146813780Y-82750500D01*
X149965588Y-82750500D01*
X150013154Y-82767813D01*
X150017914Y-82772174D01*
X151031162Y-83785422D01*
X151052554Y-83831298D01*
X151051955Y-83849132D01*
X151044901Y-83894440D01*
X151045584Y-83899663D01*
X151045584Y-83899666D01*
X151057359Y-83989708D01*
X151061633Y-84022394D01*
X151113605Y-84140510D01*
X151196639Y-84239291D01*
X151304060Y-84310796D01*
X151309092Y-84312368D01*
X151309094Y-84312369D01*
X151344714Y-84323497D01*
X151427233Y-84349278D01*
X151432501Y-84349375D01*
X151432504Y-84349375D01*
X151486552Y-84350365D01*
X151556255Y-84351643D01*
X151561338Y-84350257D01*
X151561340Y-84350257D01*
X151675671Y-84319086D01*
X151680755Y-84317700D01*
X151790724Y-84250179D01*
X151877322Y-84154507D01*
X151933588Y-84038375D01*
X151948367Y-83950527D01*
X151954522Y-83913944D01*
X151954522Y-83913943D01*
X151954997Y-83911120D01*
X151955133Y-83900000D01*
X151942530Y-83811997D01*
X151937586Y-83777472D01*
X151937585Y-83777469D01*
X151936839Y-83772259D01*
X151883428Y-83654788D01*
X151799193Y-83557028D01*
X151794774Y-83554164D01*
X151794772Y-83554162D01*
X151695329Y-83489708D01*
X151695330Y-83489708D01*
X151690906Y-83486841D01*
X151685857Y-83485331D01*
X151685855Y-83485330D01*
X151572326Y-83451377D01*
X151572325Y-83451377D01*
X151567273Y-83449866D01*
X151438231Y-83449078D01*
X151438240Y-83447586D01*
X151395118Y-83438259D01*
X151382230Y-83427970D01*
X150299733Y-82345473D01*
X150290530Y-82334259D01*
X150284651Y-82325460D01*
X150284650Y-82325459D01*
X150280601Y-82319399D01*
X150227536Y-82283943D01*
X150197741Y-82264034D01*
X150100000Y-82244592D01*
X150092851Y-82246014D01*
X150082475Y-82248078D01*
X150068038Y-82249500D01*
X146812791Y-82249500D01*
X146765225Y-82232187D01*
X146756731Y-82223804D01*
X146702633Y-82161020D01*
X146702632Y-82161019D01*
X146699193Y-82157028D01*
X146694774Y-82154164D01*
X146694772Y-82154162D01*
X146595329Y-82089708D01*
X146595330Y-82089708D01*
X146590906Y-82086841D01*
X146585857Y-82085331D01*
X146585855Y-82085330D01*
X146472326Y-82051377D01*
X146472325Y-82051377D01*
X146467273Y-82049866D01*
X146401771Y-82049466D01*
X146343501Y-82049110D01*
X146343500Y-82049110D01*
X146338231Y-82049078D01*
X146214155Y-82084539D01*
X146105019Y-82153399D01*
X146101531Y-82157348D01*
X146101529Y-82157350D01*
X146098288Y-82161020D01*
X146019596Y-82250122D01*
X146017357Y-82254891D01*
X146017355Y-82254894D01*
X145984225Y-82325460D01*
X145964754Y-82366932D01*
X145944901Y-82494440D01*
X120415685Y-82494440D01*
X120415685Y-79395172D01*
X120418207Y-79376019D01*
X120418454Y-79375097D01*
X120420976Y-79365685D01*
X120418454Y-79356273D01*
X120418454Y-79346531D01*
X120419466Y-79346531D01*
X120418819Y-79337872D01*
X120431049Y-79229329D01*
X120434734Y-79213181D01*
X120477304Y-79091522D01*
X120484488Y-79076605D01*
X120553059Y-78967477D01*
X120563390Y-78954522D01*
X120654522Y-78863390D01*
X120667477Y-78853059D01*
X120689931Y-78838950D01*
X120776605Y-78784488D01*
X120791522Y-78777304D01*
X120913181Y-78734734D01*
X120929329Y-78731049D01*
X121037872Y-78718819D01*
X121046531Y-78719466D01*
X121046531Y-78718454D01*
X121056273Y-78718454D01*
X121065685Y-78720976D01*
X121075097Y-78718454D01*
X121076019Y-78718207D01*
X121095172Y-78715685D01*
X127936198Y-78715685D01*
X127955351Y-78718207D01*
X127965685Y-78720976D01*
X127975094Y-78718455D01*
X127975095Y-78718455D01*
X128004508Y-78710574D01*
X128043331Y-78700171D01*
X128100171Y-78643331D01*
X128120976Y-78565685D01*
X128118455Y-78556276D01*
X128118455Y-78547077D01*
X128117524Y-78537628D01*
X128125702Y-78412862D01*
X128133762Y-78289886D01*
X128135026Y-78280291D01*
X128187997Y-78013985D01*
X128190502Y-78004635D01*
X128277785Y-77747508D01*
X128281489Y-77738566D01*
X128401585Y-77495035D01*
X128406425Y-77486652D01*
X128557280Y-77260881D01*
X128563173Y-77253202D01*
X128742207Y-77049052D01*
X128749052Y-77042207D01*
X128953202Y-76863173D01*
X128960881Y-76857280D01*
X129186652Y-76706425D01*
X129195035Y-76701585D01*
X129438566Y-76581489D01*
X129447505Y-76577786D01*
X129570814Y-76535928D01*
X129704635Y-76490502D01*
X129713985Y-76487997D01*
X129716963Y-76487405D01*
X129980297Y-76435025D01*
X129989886Y-76433762D01*
X130260849Y-76416002D01*
X130270521Y-76416002D01*
X130541484Y-76433762D01*
G37*
%TD.AperFunction*%
%TD*%
M02*
