%TF.GenerationSoftware,KiCad,Pcbnew,(6.0.0)*%
%TF.CreationDate,2022-11-23T19:14:59+00:00*%
%TF.ProjectId,Grove-Spectra,47726f76-652d-4537-9065-637472612e6b,A*%
%TF.SameCoordinates,Original*%
%TF.FileFunction,Profile,NP*%
%FSLAX46Y46*%
G04 Gerber Fmt 4.6, Leading zero omitted, Abs format (unit mm)*
G04 Created by KiCad (PCBNEW (6.0.0)) date 2022-11-23 19:14:59*
%MOMM*%
%LPD*%
G01*
G04 APERTURE LIST*
%TA.AperFunction,Profile*%
%ADD10C,0.100000*%
%TD*%
G04 APERTURE END LIST*
D10*
X120265685Y-97765685D02*
G75*
G03*
X121065685Y-98565685I800001J1D01*
G01*
X127965685Y-98565685D02*
X121065685Y-98565685D01*
X121065685Y-78565685D02*
X127965685Y-78565685D01*
X147965685Y-78565685D02*
G75*
G03*
X152565685Y-78565685I2300000J0D01*
G01*
X132565685Y-78565685D02*
X147965685Y-78565685D01*
X159465685Y-98565685D02*
X152565685Y-98565685D01*
X160265685Y-79365685D02*
X160265685Y-86265685D01*
X160265685Y-79365685D02*
G75*
G03*
X159465685Y-78565685I-800001J-1D01*
G01*
X120265685Y-90865685D02*
G75*
G03*
X120265685Y-86265685I0J2300000D01*
G01*
X120265685Y-86265685D02*
X120265685Y-79365685D01*
X147965685Y-98565685D02*
X132565685Y-98565685D01*
X152565685Y-98565685D02*
G75*
G03*
X147965685Y-98565685I-2300000J0D01*
G01*
X152565685Y-78565685D02*
X159465685Y-78565685D01*
X160265685Y-90865685D02*
X160265685Y-97765685D01*
X160265685Y-90865685D02*
G75*
G03*
X160265685Y-86265685I0J2300000D01*
G01*
X127965685Y-98565685D02*
G75*
G03*
X132565685Y-98565685I2300000J0D01*
G01*
X121065685Y-78565685D02*
G75*
G03*
X120265685Y-79365685I1J-800001D01*
G01*
X120265685Y-97765685D02*
X120265685Y-90865685D01*
X159465685Y-98565685D02*
G75*
G03*
X160265685Y-97765685I-1J800001D01*
G01*
X132565685Y-78565685D02*
G75*
G03*
X127965685Y-78565685I-2300000J0D01*
G01*
M02*
